<?xml version="1.0" encoding="UTF-8" standalone="no"?>
<!-- Created with Inkscape (http://www.inkscape.org/) -->

<svg
   xmlns:dc="http://purl.org/dc/elements/1.1/"
   xmlns:cc="http://creativecommons.org/ns#"
   xmlns:rdf="http://www.w3.org/1999/02/22-rdf-syntax-ns#"
   xmlns:svg="http://www.w3.org/2000/svg"
   xmlns="http://www.w3.org/2000/svg"
   xmlns:sodipodi="http://sodipodi.sourceforge.net/DTD/sodipodi-0.dtd"
   xmlns:inkscape="http://www.inkscape.org/namespaces/inkscape"
   width="210mm"
   height="297mm"
   id="svg2"
   version="1.1"
   inkscape:version="0.48.4 r9939"
   sodipodi:docname="Neues Dokument 1">
  <defs
     id="defs4">
    <inkscape:perspective
       sodipodi:type="inkscape:persp3d"
       inkscape:vp_x="0 : 526.18109 : 1"
       inkscape:vp_y="0 : 1000 : 0"
       inkscape:vp_z="744.09448 : 526.18109 : 1"
       inkscape:persp3d-origin="372.04724 : 350.78739 : 1"
       id="perspective2987" />
  </defs>
  <sodipodi:namedview
     id="base"
     pagecolor="#ffffff"
     bordercolor="#666666"
     borderopacity="1.0"
     inkscape:pageopacity="0.0"
     inkscape:pageshadow="2"
     inkscape:zoom="0.7"
     inkscape:cx="262.41136"
     inkscape:cy="527.33148"
     inkscape:document-units="px"
     inkscape:current-layer="layer1"
     showgrid="false"
     inkscape:window-width="1920"
     inkscape:window-height="1017"
     inkscape:window-x="-8"
     inkscape:window-y="-8"
     inkscape:window-maximized="1" />
  <metadata
     id="metadata7">
    <rdf:RDF>
      <cc:Work
         rdf:about="">
        <dc:format>image/svg+xml</dc:format>
        <dc:type
           rdf:resource="http://purl.org/dc/dcmitype/StillImage" />
        <dc:title></dc:title>
      </cc:Work>
    </rdf:RDF>
  </metadata>
  <g
     inkscape:label="Ebene 1"
     inkscape:groupmode="layer"
     id="layer1">
    <g
       id="g3005"
       transform="translate(-34.285714,134.28571)">
      <path
         d="m 271.42857,786.64789 c 0,36.293 -41.57356,65.71428 -92.85714,65.71428 -51.28359,0 -92.857143,-29.42128 -92.857143,-65.71428 0,-36.293 41.573553,-65.71429 92.857143,-65.71429 51.28358,0 92.85714,29.42129 92.85714,65.71429 z"
         sodipodi:ry="65.714287"
         sodipodi:rx="92.85714"
         sodipodi:cy="786.64789"
         sodipodi:cx="178.57143"
         id="path2985"
         style="fill:#000000;fill-opacity:1;stroke:none"
         sodipodi:type="arc" />
      <rect
         y="312.36218"
         x="254.28572"
         height="485.71429"
         width="17.142864"
         id="rect3003"
         style="fill:#000000;fill-opacity:1;stroke:none" />
    </g>
    <g
       transform="translate(198.57143,-122.85715)"
       id="g3009">
      <path
         sodipodi:type="arc"
         style="fill:#000000;fill-opacity:1;stroke:none"
         id="path3011"
         sodipodi:cx="178.57143"
         sodipodi:cy="786.64789"
         sodipodi:rx="92.85714"
         sodipodi:ry="65.714287"
         d="m 271.42857,786.64789 c 0,36.293 -41.57356,65.71428 -92.85714,65.71428 -51.28359,0 -92.857143,-29.42128 -92.857143,-65.71428 0,-36.293 41.573553,-65.71429 92.857143,-65.71429 51.28358,0 92.85714,29.42129 92.85714,65.71429 z" />
      <rect
         style="fill:#000000;fill-opacity:1;stroke:none"
         id="rect3013"
         width="17.142864"
         height="485.71429"
         x="254.28572"
         y="312.36218" />
    </g>
    <g
       id="g3015"
       transform="translate(198.57143,7.1428501)">
      <path
         d="m 271.42857,786.64789 c 0,36.293 -41.57356,65.71428 -92.85714,65.71428 -51.28359,0 -92.857143,-29.42128 -92.857143,-65.71428 0,-36.293 41.573553,-65.71429 92.857143,-65.71429 51.28358,0 92.85714,29.42129 92.85714,65.71429 z"
         sodipodi:ry="65.714287"
         sodipodi:rx="92.85714"
         sodipodi:cy="786.64789"
         sodipodi:cx="178.57143"
         id="path3017"
         style="fill:#000000;fill-opacity:1;stroke:none"
         sodipodi:type="arc" />
      <rect
         y="312.36218"
         x="254.28572"
         height="485.71429"
         width="17.142864"
         id="rect3019"
         style="fill:#000000;fill-opacity:1;stroke:none" />
    </g>
    <g
       transform="matrix(-0.99968718,0.02501066,-0.02501066,-0.99968718,810.2237,995.79028)"
       id="g3021">
      <path
         sodipodi:type="arc"
         style="fill:#000000;fill-opacity:1;stroke:none"
         id="path3023"
         sodipodi:cx="178.57143"
         sodipodi:cy="786.64789"
         sodipodi:rx="92.85714"
         sodipodi:ry="65.714287"
         d="m 271.42857,786.64789 c 0,36.293 -41.57356,65.71428 -92.85714,65.71428 -51.28359,0 -92.857143,-29.42128 -92.857143,-65.71428 0,-36.293 41.573553,-65.71429 92.857143,-65.71429 51.28358,0 92.85714,29.42129 92.85714,65.71429 z" />
      <rect
         style="fill:#000000;fill-opacity:1;stroke:none"
         id="rect3025"
         width="17.142864"
         height="485.71429"
         x="254.28572"
         y="312.36218" />
    </g>
    <rect
       style="fill:#000000;fill-opacity:1;stroke:none"
       id="rect3033"
       width="765.71429"
       height="11.428572"
       x="1.4285713"
       y="918.07648" />
    <rect
       y="788.07648"
       x="-8.5714283"
       height="11.428572"
       width="765.71429"
       id="rect3035"
       style="fill:#000000;fill-opacity:1;stroke:none" />
    <rect
       style="fill:#000000;fill-opacity:1;stroke:none"
       id="rect3037"
       width="765.71429"
       height="11.428572"
       x="-18.571428"
       y="655.21936" />
    <rect
       y="503.7908"
       x="-14.285714"
       height="11.428572"
       width="765.71429"
       id="rect3039"
       style="fill:#000000;fill-opacity:1;stroke:none" />
    <rect
       style="fill:#000000;fill-opacity:1;stroke:none"
       id="rect3041"
       width="765.71429"
       height="11.428572"
       x="-12.857142"
       y="368.07651" />
    <rect
       y="210.93365"
       x="477.14285"
       height="11.428572"
       width="258.57144"
       id="rect3043"
       style="fill:#000000;fill-opacity:1;stroke:none" />
  </g>
</svg>
